<mxfile host="app.diagrams.net" agent="Mozilla/5.0 (Windows NT 10.0; Win64; x64) AppleWebKit/537.36 (KHTML, like Gecko) Chrome/135.0.0.0 Safari/537.36 Edg/135.0.0.0" version="26.2.15">
  <diagram name="Page-1" id="n0xp4v115jFFmYm9CTcp">
    <mxGraphModel dx="2327" dy="766" grid="1" gridSize="10" guides="1" tooltips="1" connect="1" arrows="1" fold="1" page="1" pageScale="1" pageWidth="850" pageHeight="1100" math="0" shadow="0">
      <root>
        <mxCell id="0" />
        <mxCell id="1" parent="0" />
        <mxCell id="gePz9cdqOkp6eLVHLGYA-1" value="Users" style="rounded=0;whiteSpace=wrap;html=1;" vertex="1" parent="1">
          <mxGeometry x="130" y="440" width="120" height="60" as="geometry" />
        </mxCell>
        <mxCell id="gePz9cdqOkp6eLVHLGYA-2" value="Carts" style="rounded=0;whiteSpace=wrap;html=1;" vertex="1" parent="1">
          <mxGeometry x="130" y="680" width="120" height="60" as="geometry" />
        </mxCell>
        <mxCell id="gePz9cdqOkp6eLVHLGYA-3" value="Products" style="rounded=0;whiteSpace=wrap;html=1;" vertex="1" parent="1">
          <mxGeometry x="560" y="680" width="120" height="60" as="geometry" />
        </mxCell>
        <mxCell id="gePz9cdqOkp6eLVHLGYA-4" value="Orders" style="rounded=0;whiteSpace=wrap;html=1;" vertex="1" parent="1">
          <mxGeometry x="560" y="440" width="120" height="60" as="geometry" />
        </mxCell>
        <mxCell id="gePz9cdqOkp6eLVHLGYA-5" value="Đặt hàng" style="rhombus;whiteSpace=wrap;html=1;" vertex="1" parent="1">
          <mxGeometry x="105" y="570" width="170" height="50" as="geometry" />
        </mxCell>
        <mxCell id="gePz9cdqOkp6eLVHLGYA-6" value="Thanh toán" style="rhombus;whiteSpace=wrap;html=1;rotation=2;" vertex="1" parent="1">
          <mxGeometry x="320" y="445" width="170" height="50" as="geometry" />
        </mxCell>
        <mxCell id="gePz9cdqOkp6eLVHLGYA-7" value="Có" style="rhombus;whiteSpace=wrap;html=1;" vertex="1" parent="1">
          <mxGeometry x="310" y="690" width="170" height="50" as="geometry" />
        </mxCell>
        <mxCell id="gePz9cdqOkp6eLVHLGYA-9" value="Có" style="rhombus;whiteSpace=wrap;html=1;" vertex="1" parent="1">
          <mxGeometry x="535" y="570" width="170" height="50" as="geometry" />
        </mxCell>
        <mxCell id="gePz9cdqOkp6eLVHLGYA-10" value="id" style="ellipse;whiteSpace=wrap;html=1;" vertex="1" parent="1">
          <mxGeometry x="-100" y="280" width="120" height="50" as="geometry" />
        </mxCell>
        <mxCell id="gePz9cdqOkp6eLVHLGYA-11" value="email" style="ellipse;whiteSpace=wrap;html=1;" vertex="1" parent="1">
          <mxGeometry x="50" y="230" width="120" height="50" as="geometry" />
        </mxCell>
        <mxCell id="gePz9cdqOkp6eLVHLGYA-12" value="password" style="ellipse;whiteSpace=wrap;html=1;" vertex="1" parent="1">
          <mxGeometry x="230" y="230" width="120" height="50" as="geometry" />
        </mxCell>
        <mxCell id="gePz9cdqOkp6eLVHLGYA-13" value="role" style="ellipse;whiteSpace=wrap;html=1;" vertex="1" parent="1">
          <mxGeometry x="370" y="270" width="120" height="50" as="geometry" />
        </mxCell>
        <mxCell id="gePz9cdqOkp6eLVHLGYA-14" value="status" style="ellipse;whiteSpace=wrap;html=1;" vertex="1" parent="1">
          <mxGeometry x="-90" y="370" width="120" height="50" as="geometry" />
        </mxCell>
        <mxCell id="gePz9cdqOkp6eLVHLGYA-16" value="" style="endArrow=none;html=1;rounded=0;exitX=1;exitY=0.5;exitDx=0;exitDy=0;entryX=0.5;entryY=0;entryDx=0;entryDy=0;" edge="1" parent="1" source="gePz9cdqOkp6eLVHLGYA-14" target="gePz9cdqOkp6eLVHLGYA-1">
          <mxGeometry width="50" height="50" relative="1" as="geometry">
            <mxPoint x="400" y="510" as="sourcePoint" />
            <mxPoint x="450" y="460" as="targetPoint" />
          </mxGeometry>
        </mxCell>
        <mxCell id="gePz9cdqOkp6eLVHLGYA-18" value="" style="endArrow=none;html=1;rounded=0;exitX=0.5;exitY=0;exitDx=0;exitDy=0;entryX=1;entryY=0.5;entryDx=0;entryDy=0;" edge="1" parent="1" source="gePz9cdqOkp6eLVHLGYA-1" target="gePz9cdqOkp6eLVHLGYA-10">
          <mxGeometry width="50" height="50" relative="1" as="geometry">
            <mxPoint x="400" y="410" as="sourcePoint" />
            <mxPoint x="450" y="360" as="targetPoint" />
          </mxGeometry>
        </mxCell>
        <mxCell id="gePz9cdqOkp6eLVHLGYA-19" value="" style="endArrow=none;html=1;rounded=0;exitX=0.5;exitY=0;exitDx=0;exitDy=0;entryX=0.5;entryY=1;entryDx=0;entryDy=0;" edge="1" parent="1" source="gePz9cdqOkp6eLVHLGYA-1" target="gePz9cdqOkp6eLVHLGYA-11">
          <mxGeometry width="50" height="50" relative="1" as="geometry">
            <mxPoint x="200" y="450" as="sourcePoint" />
            <mxPoint x="20" y="335" as="targetPoint" />
          </mxGeometry>
        </mxCell>
        <mxCell id="gePz9cdqOkp6eLVHLGYA-20" value="" style="endArrow=none;html=1;rounded=0;exitX=0.5;exitY=0;exitDx=0;exitDy=0;entryX=0.5;entryY=1;entryDx=0;entryDy=0;" edge="1" parent="1" source="gePz9cdqOkp6eLVHLGYA-1" target="gePz9cdqOkp6eLVHLGYA-12">
          <mxGeometry width="50" height="50" relative="1" as="geometry">
            <mxPoint x="200" y="450" as="sourcePoint" />
            <mxPoint x="80" y="280" as="targetPoint" />
          </mxGeometry>
        </mxCell>
        <mxCell id="gePz9cdqOkp6eLVHLGYA-21" value="" style="endArrow=none;html=1;rounded=0;exitX=0.5;exitY=0;exitDx=0;exitDy=0;entryX=0.5;entryY=1;entryDx=0;entryDy=0;" edge="1" parent="1" source="gePz9cdqOkp6eLVHLGYA-1" target="gePz9cdqOkp6eLVHLGYA-13">
          <mxGeometry width="50" height="50" relative="1" as="geometry">
            <mxPoint x="200" y="450" as="sourcePoint" />
            <mxPoint x="230" y="250" as="targetPoint" />
          </mxGeometry>
        </mxCell>
        <mxCell id="gePz9cdqOkp6eLVHLGYA-22" value="id" style="ellipse;whiteSpace=wrap;html=1;" vertex="1" parent="1">
          <mxGeometry x="800" y="290" width="120" height="50" as="geometry" />
        </mxCell>
        <mxCell id="gePz9cdqOkp6eLVHLGYA-23" value="description" style="ellipse;whiteSpace=wrap;html=1;" vertex="1" parent="1">
          <mxGeometry x="910" y="370" width="120" height="50" as="geometry" />
        </mxCell>
        <mxCell id="gePz9cdqOkp6eLVHLGYA-24" value="status" style="ellipse;whiteSpace=wrap;html=1;" vertex="1" parent="1">
          <mxGeometry x="870" y="490" width="120" height="50" as="geometry" />
        </mxCell>
        <mxCell id="gePz9cdqOkp6eLVHLGYA-25" value="total_amount" style="ellipse;whiteSpace=wrap;html=1;" vertex="1" parent="1">
          <mxGeometry x="850" y="580" width="120" height="50" as="geometry" />
        </mxCell>
        <mxCell id="gePz9cdqOkp6eLVHLGYA-26" value="id" style="ellipse;whiteSpace=wrap;html=1;" vertex="1" parent="1">
          <mxGeometry x="-100" y="620" width="120" height="50" as="geometry" />
        </mxCell>
        <mxCell id="gePz9cdqOkp6eLVHLGYA-27" value="" style="endArrow=none;html=1;rounded=0;exitX=1;exitY=0.5;exitDx=0;exitDy=0;entryX=0;entryY=0.5;entryDx=0;entryDy=0;" edge="1" parent="1" source="gePz9cdqOkp6eLVHLGYA-26" target="gePz9cdqOkp6eLVHLGYA-2">
          <mxGeometry width="50" height="50" relative="1" as="geometry">
            <mxPoint x="50" y="425" as="sourcePoint" />
            <mxPoint x="200" y="450" as="targetPoint" />
          </mxGeometry>
        </mxCell>
        <mxCell id="gePz9cdqOkp6eLVHLGYA-28" value="quantity" style="ellipse;whiteSpace=wrap;html=1;" vertex="1" parent="1">
          <mxGeometry x="-110" y="800" width="120" height="50" as="geometry" />
        </mxCell>
        <mxCell id="gePz9cdqOkp6eLVHLGYA-29" value="" style="endArrow=none;html=1;rounded=0;entryX=0;entryY=0.5;entryDx=0;entryDy=0;exitX=1;exitY=0.5;exitDx=0;exitDy=0;" edge="1" parent="1" source="gePz9cdqOkp6eLVHLGYA-28" target="gePz9cdqOkp6eLVHLGYA-2">
          <mxGeometry width="50" height="50" relative="1" as="geometry">
            <mxPoint x="20" y="820" as="sourcePoint" />
            <mxPoint x="140" y="720" as="targetPoint" />
          </mxGeometry>
        </mxCell>
        <mxCell id="gePz9cdqOkp6eLVHLGYA-31" value="id" style="ellipse;whiteSpace=wrap;html=1;" vertex="1" parent="1">
          <mxGeometry x="305" y="820" width="120" height="50" as="geometry" />
        </mxCell>
        <mxCell id="gePz9cdqOkp6eLVHLGYA-32" value="" style="endArrow=none;html=1;rounded=0;entryX=0.5;entryY=1;entryDx=0;entryDy=0;exitX=0.5;exitY=0;exitDx=0;exitDy=0;" edge="1" parent="1" source="gePz9cdqOkp6eLVHLGYA-31" target="gePz9cdqOkp6eLVHLGYA-3">
          <mxGeometry width="50" height="50" relative="1" as="geometry">
            <mxPoint x="20" y="835" as="sourcePoint" />
            <mxPoint x="140" y="720" as="targetPoint" />
          </mxGeometry>
        </mxCell>
        <mxCell id="gePz9cdqOkp6eLVHLGYA-33" value="name" style="ellipse;whiteSpace=wrap;html=1;" vertex="1" parent="1">
          <mxGeometry x="370" y="920" width="120" height="50" as="geometry" />
        </mxCell>
        <mxCell id="gePz9cdqOkp6eLVHLGYA-34" value="description" style="ellipse;whiteSpace=wrap;html=1;" vertex="1" parent="1">
          <mxGeometry x="460" y="990" width="120" height="50" as="geometry" />
        </mxCell>
        <mxCell id="gePz9cdqOkp6eLVHLGYA-35" value="price" style="ellipse;whiteSpace=wrap;html=1;" vertex="1" parent="1">
          <mxGeometry x="620" y="1010" width="120" height="50" as="geometry" />
        </mxCell>
        <mxCell id="gePz9cdqOkp6eLVHLGYA-36" value="stock" style="ellipse;whiteSpace=wrap;html=1;" vertex="1" parent="1">
          <mxGeometry x="780" y="1000" width="120" height="50" as="geometry" />
        </mxCell>
        <mxCell id="gePz9cdqOkp6eLVHLGYA-37" value="categor&lt;span style=&quot;color: rgba(0, 0, 0, 0); font-family: monospace; font-size: 0px; text-align: start; text-wrap-mode: nowrap;&quot;&gt;%3CmxGraphModel%3E%3Croot%3E%3CmxCell%20id%3D%220%22%2F%3E%3CmxCell%20id%3D%221%22%20parent%3D%220%22%2F%3E%3CmxCell%20id%3D%222%22%20value%3D%22stock%22%20style%3D%22ellipse%3BwhiteSpace%3Dwrap%3Bhtml%3D1%3B%22%20vertex%3D%221%22%20parent%3D%221%22%3E%3CmxGeometry%20x%3D%22790%22%20y%3D%22770%22%20width%3D%22120%22%20height%3D%2250%22%20as%3D%22geometry%22%2F%3E%3C%2FmxCell%3E%3C%2Froot%3E%3C%2FmxGraphModel%3E&lt;/span&gt;y" style="ellipse;whiteSpace=wrap;html=1;" vertex="1" parent="1">
          <mxGeometry x="870" y="910" width="120" height="50" as="geometry" />
        </mxCell>
        <mxCell id="gePz9cdqOkp6eLVHLGYA-38" value="original_price" style="ellipse;whiteSpace=wrap;html=1;" vertex="1" parent="1">
          <mxGeometry x="910" y="830" width="120" height="50" as="geometry" />
        </mxCell>
        <mxCell id="gePz9cdqOkp6eLVHLGYA-39" value="" style="endArrow=none;html=1;rounded=0;exitX=0.5;exitY=0;exitDx=0;exitDy=0;" edge="1" parent="1" source="gePz9cdqOkp6eLVHLGYA-33">
          <mxGeometry width="50" height="50" relative="1" as="geometry">
            <mxPoint x="440" y="900" as="sourcePoint" />
            <mxPoint x="620" y="740" as="targetPoint" />
          </mxGeometry>
        </mxCell>
        <mxCell id="gePz9cdqOkp6eLVHLGYA-40" value="" style="endArrow=none;html=1;rounded=0;exitX=0.5;exitY=0;exitDx=0;exitDy=0;" edge="1" parent="1" source="gePz9cdqOkp6eLVHLGYA-34">
          <mxGeometry width="50" height="50" relative="1" as="geometry">
            <mxPoint x="580" y="900" as="sourcePoint" />
            <mxPoint x="620" y="740" as="targetPoint" />
          </mxGeometry>
        </mxCell>
        <mxCell id="gePz9cdqOkp6eLVHLGYA-41" value="" style="endArrow=none;html=1;rounded=0;exitX=0.5;exitY=0;exitDx=0;exitDy=0;entryX=0.5;entryY=1;entryDx=0;entryDy=0;" edge="1" parent="1" source="gePz9cdqOkp6eLVHLGYA-35" target="gePz9cdqOkp6eLVHLGYA-3">
          <mxGeometry width="50" height="50" relative="1" as="geometry">
            <mxPoint x="720" y="910" as="sourcePoint" />
            <mxPoint x="630" y="750" as="targetPoint" />
          </mxGeometry>
        </mxCell>
        <mxCell id="gePz9cdqOkp6eLVHLGYA-42" value="" style="endArrow=none;html=1;rounded=0;exitX=0.5;exitY=0;exitDx=0;exitDy=0;entryX=0.5;entryY=1;entryDx=0;entryDy=0;" edge="1" parent="1" source="gePz9cdqOkp6eLVHLGYA-36" target="gePz9cdqOkp6eLVHLGYA-3">
          <mxGeometry width="50" height="50" relative="1" as="geometry">
            <mxPoint x="778" y="867" as="sourcePoint" />
            <mxPoint x="630" y="750" as="targetPoint" />
          </mxGeometry>
        </mxCell>
        <mxCell id="gePz9cdqOkp6eLVHLGYA-43" value="" style="endArrow=none;html=1;rounded=0;exitX=0;exitY=0.5;exitDx=0;exitDy=0;" edge="1" parent="1" source="gePz9cdqOkp6eLVHLGYA-37">
          <mxGeometry width="50" height="50" relative="1" as="geometry">
            <mxPoint x="800" y="805" as="sourcePoint" />
            <mxPoint x="620" y="740" as="targetPoint" />
          </mxGeometry>
        </mxCell>
        <mxCell id="gePz9cdqOkp6eLVHLGYA-44" value="" style="endArrow=none;html=1;rounded=0;exitX=0;exitY=0.5;exitDx=0;exitDy=0;" edge="1" parent="1" source="gePz9cdqOkp6eLVHLGYA-38">
          <mxGeometry width="50" height="50" relative="1" as="geometry">
            <mxPoint x="800" y="735" as="sourcePoint" />
            <mxPoint x="620" y="740" as="targetPoint" />
          </mxGeometry>
        </mxCell>
        <mxCell id="gePz9cdqOkp6eLVHLGYA-45" value="" style="endArrow=none;html=1;rounded=0;exitX=0;exitY=0;exitDx=0;exitDy=0;entryX=1;entryY=0.5;entryDx=0;entryDy=0;" edge="1" parent="1" source="gePz9cdqOkp6eLVHLGYA-25" target="gePz9cdqOkp6eLVHLGYA-4">
          <mxGeometry width="50" height="50" relative="1" as="geometry">
            <mxPoint x="800" y="670" as="sourcePoint" />
            <mxPoint x="630" y="750" as="targetPoint" />
          </mxGeometry>
        </mxCell>
        <mxCell id="gePz9cdqOkp6eLVHLGYA-46" value="" style="endArrow=none;html=1;rounded=0;exitX=0;exitY=0.5;exitDx=0;exitDy=0;" edge="1" parent="1" source="gePz9cdqOkp6eLVHLGYA-24">
          <mxGeometry width="50" height="50" relative="1" as="geometry">
            <mxPoint x="850" y="525" as="sourcePoint" />
            <mxPoint x="680" y="470" as="targetPoint" />
          </mxGeometry>
        </mxCell>
        <mxCell id="gePz9cdqOkp6eLVHLGYA-47" value="" style="endArrow=none;html=1;rounded=0;exitX=0;exitY=1;exitDx=0;exitDy=0;entryX=1;entryY=0.5;entryDx=0;entryDy=0;" edge="1" parent="1" source="gePz9cdqOkp6eLVHLGYA-23" target="gePz9cdqOkp6eLVHLGYA-4">
          <mxGeometry width="50" height="50" relative="1" as="geometry">
            <mxPoint x="760" y="445" as="sourcePoint" />
            <mxPoint x="690" y="480" as="targetPoint" />
          </mxGeometry>
        </mxCell>
        <mxCell id="gePz9cdqOkp6eLVHLGYA-48" value="" style="endArrow=none;html=1;rounded=0;exitX=0.5;exitY=1;exitDx=0;exitDy=0;entryX=1;entryY=0.5;entryDx=0;entryDy=0;" edge="1" parent="1" source="gePz9cdqOkp6eLVHLGYA-22" target="gePz9cdqOkp6eLVHLGYA-4">
          <mxGeometry width="50" height="50" relative="1" as="geometry">
            <mxPoint x="850" y="320" as="sourcePoint" />
            <mxPoint x="690" y="480" as="targetPoint" />
          </mxGeometry>
        </mxCell>
        <mxCell id="gePz9cdqOkp6eLVHLGYA-49" value="" style="endArrow=none;html=1;rounded=0;exitX=0.5;exitY=1;exitDx=0;exitDy=0;" edge="1" parent="1" source="gePz9cdqOkp6eLVHLGYA-1" target="gePz9cdqOkp6eLVHLGYA-5">
          <mxGeometry width="50" height="50" relative="1" as="geometry">
            <mxPoint x="200" y="450" as="sourcePoint" />
            <mxPoint x="375" y="250" as="targetPoint" />
          </mxGeometry>
        </mxCell>
        <mxCell id="gePz9cdqOkp6eLVHLGYA-50" value="" style="endArrow=none;html=1;rounded=0;exitX=0.5;exitY=0;exitDx=0;exitDy=0;entryX=0.5;entryY=1;entryDx=0;entryDy=0;" edge="1" parent="1" source="gePz9cdqOkp6eLVHLGYA-2" target="gePz9cdqOkp6eLVHLGYA-5">
          <mxGeometry width="50" height="50" relative="1" as="geometry">
            <mxPoint x="200" y="510" as="sourcePoint" />
            <mxPoint x="200" y="580" as="targetPoint" />
          </mxGeometry>
        </mxCell>
        <mxCell id="gePz9cdqOkp6eLVHLGYA-51" value="" style="endArrow=none;html=1;rounded=0;exitX=1;exitY=0.5;exitDx=0;exitDy=0;entryX=0;entryY=0.5;entryDx=0;entryDy=0;" edge="1" parent="1" source="gePz9cdqOkp6eLVHLGYA-2" target="gePz9cdqOkp6eLVHLGYA-7">
          <mxGeometry width="50" height="50" relative="1" as="geometry">
            <mxPoint x="200" y="690" as="sourcePoint" />
            <mxPoint x="200" y="630" as="targetPoint" />
          </mxGeometry>
        </mxCell>
        <mxCell id="gePz9cdqOkp6eLVHLGYA-53" value="" style="endArrow=none;html=1;rounded=0;exitX=0;exitY=0.5;exitDx=0;exitDy=0;entryX=1;entryY=0.5;entryDx=0;entryDy=0;" edge="1" parent="1" source="gePz9cdqOkp6eLVHLGYA-3" target="gePz9cdqOkp6eLVHLGYA-7">
          <mxGeometry width="50" height="50" relative="1" as="geometry">
            <mxPoint x="260" y="720" as="sourcePoint" />
            <mxPoint x="320" y="725" as="targetPoint" />
            <Array as="points" />
          </mxGeometry>
        </mxCell>
        <mxCell id="gePz9cdqOkp6eLVHLGYA-54" value="" style="endArrow=none;html=1;rounded=0;exitX=0.5;exitY=0;exitDx=0;exitDy=0;entryX=0.5;entryY=1;entryDx=0;entryDy=0;" edge="1" parent="1" source="gePz9cdqOkp6eLVHLGYA-3" target="gePz9cdqOkp6eLVHLGYA-9">
          <mxGeometry width="50" height="50" relative="1" as="geometry">
            <mxPoint x="570" y="720" as="sourcePoint" />
            <mxPoint x="490" y="725" as="targetPoint" />
            <Array as="points" />
          </mxGeometry>
        </mxCell>
        <mxCell id="gePz9cdqOkp6eLVHLGYA-55" value="" style="endArrow=none;html=1;rounded=0;exitX=0.5;exitY=1;exitDx=0;exitDy=0;entryX=0.5;entryY=0;entryDx=0;entryDy=0;" edge="1" parent="1" source="gePz9cdqOkp6eLVHLGYA-4" target="gePz9cdqOkp6eLVHLGYA-9">
          <mxGeometry width="50" height="50" relative="1" as="geometry">
            <mxPoint x="630" y="690" as="sourcePoint" />
            <mxPoint x="630" y="630" as="targetPoint" />
            <Array as="points" />
          </mxGeometry>
        </mxCell>
        <mxCell id="gePz9cdqOkp6eLVHLGYA-56" value="" style="endArrow=none;html=1;rounded=0;exitX=0;exitY=0.5;exitDx=0;exitDy=0;" edge="1" parent="1" source="gePz9cdqOkp6eLVHLGYA-4">
          <mxGeometry width="50" height="50" relative="1" as="geometry">
            <mxPoint x="630" y="510" as="sourcePoint" />
            <mxPoint x="490" y="473" as="targetPoint" />
            <Array as="points" />
          </mxGeometry>
        </mxCell>
        <mxCell id="gePz9cdqOkp6eLVHLGYA-57" value="" style="endArrow=none;html=1;rounded=0;exitX=0;exitY=0.5;exitDx=0;exitDy=0;entryX=1;entryY=0.5;entryDx=0;entryDy=0;" edge="1" parent="1" source="gePz9cdqOkp6eLVHLGYA-6" target="gePz9cdqOkp6eLVHLGYA-1">
          <mxGeometry width="50" height="50" relative="1" as="geometry">
            <mxPoint x="570" y="480" as="sourcePoint" />
            <mxPoint x="510" y="483" as="targetPoint" />
            <Array as="points" />
          </mxGeometry>
        </mxCell>
      </root>
    </mxGraphModel>
  </diagram>
</mxfile>
